<svg width="50" height="86" viewBox="0 0 50 86" fill="none" xmlns="http://www.w3.org/2000/svg">
<path d="M49 43.5C49 60.6915 46.2048 71.0582 41.865 77.1115C37.584 83.0827 31.6896 85 25 85C18.3104 85 12.416 83.0827 8.13504 77.1115C3.79516 71.0582 1 60.6915 1 43.5C1 26.3121 3.79372 15.684 8.14556 9.37355C12.4417 3.14391 18.345 1 25 1C31.655 1 37.5583 3.14391 41.8544 9.37355C46.2063 15.684 49 26.3121 49 43.5Z" stroke="#F1F1F1" stroke-width="2"/>
<path d="M23.9393 58.0607C24.5251 58.6464 25.4749 58.6464 26.0607 58.0607L35.6066 48.5147C36.1924 47.9289 36.1924 46.9792 35.6066 46.3934C35.0208 45.8076 34.0711 45.8076 33.4853 46.3934L25 54.8787L16.5147 46.3934C15.9289 45.8076 14.9792 45.8076 14.3934 46.3934C13.8076 46.9792 13.8076 47.9289 14.3934 48.5147L23.9393 58.0607ZM23.5 30V57H26.5V30H23.5Z" fill="#F1F1F1"/>
</svg>
