<svg width="101" height="242" viewBox="0 0 101 242" fill="none" xmlns="http://www.w3.org/2000/svg">
<path d="M9.4082 122L9.4082 123.19L9.4082 129.479L1.35753 129.479L0.6576 129.479L9.4082 122Z" fill="black"/>
<path d="M90.6147 242L90.6147 240.81L90.6147 234.51L98.961 234.51L99.3655 234.51L90.6147 242Z" fill="black"/>
<rect x="1.65771" y="130.479" width="87.9575" height="110.521" fill="white" stroke="black" stroke-width="2"/>
<path d="M5.85791 126.739H93.8154V237.261H5.85791V126.739Z" fill="white" stroke="black" stroke-width="2"/>
<rect x="10.4082" y="123" width="87.9575" height="110.521" fill="white" stroke="black" stroke-width="2"/>
<path d="M1.02056 240.921L2.04096 241.912L10.7144 233.984L9.82885 233.144L1.02056 240.921Z" fill="black"/>
<rect x="41.4111" y="160.574" width="18.2516" height="35.7139" rx="4.5" fill="white" stroke="black"/>
<path d="M53.2317 166.872H63.0729C64.4144 166.872 65.0852 166.872 65.6173 167.083C66.3875 167.388 66.9973 167.998 67.3023 168.768C67.5129 169.3 67.5129 169.971 67.5129 171.312V173.606L57.9423 182.365L57.9423 182.365C57.5356 182.737 57.3323 182.923 57.1061 183.066C56.7792 183.273 56.4155 183.414 56.0351 183.482C55.7718 183.53 55.4961 183.53 54.9448 183.53H43.7109V178.274C43.7109 177.689 43.7109 177.397 43.7637 177.119C43.84 176.718 43.9975 176.337 44.2265 175.998C44.3849 175.764 44.5911 175.557 45.0035 175.142L53.2317 166.872Z" fill="white"/>
<path d="M53.2317 166.872H63.0729C64.4144 166.872 65.0852 166.872 65.6173 167.083C66.3875 167.388 66.9973 167.998 67.3023 168.768C67.5129 169.3 67.5129 169.971 67.5129 171.312V173.606M53.2317 166.872V173.606M53.2317 166.872L45.0035 175.142C44.5911 175.557 44.3849 175.764 44.2265 175.998C43.9975 176.337 43.84 176.718 43.7637 177.119C43.7109 177.397 43.7109 177.689 43.7109 178.274V183.53M67.5129 173.606H53.2317M67.5129 173.606L57.9423 182.365C57.5356 182.737 57.3323 182.923 57.1061 183.066C56.7792 183.273 56.4155 183.414 56.0351 183.482C55.7718 183.53 55.4961 183.53 54.9448 183.53H43.7109M53.2317 173.606L43.7109 183.53" stroke="black"/>
<path d="M47.3499 150.417C46.6565 150.417 46.0265 150.264 45.4599 149.957C44.8999 149.644 44.4599 149.217 44.1399 148.677C43.8265 148.137 43.6699 147.53 43.6699 146.857C43.6699 146.184 43.8265 145.577 44.1399 145.037C44.4599 144.497 44.8999 144.074 45.4599 143.767C46.0265 143.454 46.6565 143.297 47.3499 143.297C48.0432 143.297 48.6665 143.45 49.2199 143.757C49.7799 144.064 50.2199 144.49 50.5399 145.037C50.8599 145.577 51.0199 146.184 51.0199 146.857C51.0199 147.53 50.8599 148.14 50.5399 148.687C50.2199 149.227 49.7799 149.65 49.2199 149.957C48.6665 150.264 48.0432 150.417 47.3499 150.417ZM47.3499 149.757C47.9032 149.757 48.4032 149.634 48.8499 149.387C49.2965 149.134 49.6465 148.787 49.8999 148.347C50.1532 147.9 50.2799 147.404 50.2799 146.857C50.2799 146.31 50.1532 145.817 49.8999 145.377C49.6465 144.93 49.2965 144.584 48.8499 144.337C48.4032 144.084 47.9032 143.957 47.3499 143.957C46.7965 143.957 46.2932 144.084 45.8399 144.337C45.3932 144.584 45.0399 144.93 44.7799 145.377C44.5265 145.817 44.3999 146.31 44.3999 146.857C44.3999 147.404 44.5265 147.9 44.7799 148.347C45.0399 148.787 45.3932 149.134 45.8399 149.387C46.2932 149.634 46.7965 149.757 47.3499 149.757ZM58.5286 143.357V150.357H57.9186L53.4186 144.677V150.357H52.6786V143.357H53.2886L57.7986 149.037V143.357H58.5286Z" fill="black"/>
<path d="M48.2395 215.686C47.5462 215.686 46.9162 215.533 46.3495 215.226C45.7895 214.913 45.3495 214.486 45.0295 213.946C44.7162 213.406 44.5595 212.799 44.5595 212.126C44.5595 211.453 44.7162 210.846 45.0295 210.306C45.3495 209.766 45.7895 209.343 46.3495 209.036C46.9162 208.723 47.5462 208.566 48.2395 208.566C48.9329 208.566 49.5562 208.719 50.1095 209.026C50.6695 209.333 51.1095 209.759 51.4295 210.306C51.7495 210.846 51.9095 211.453 51.9095 212.126C51.9095 212.799 51.7495 213.409 51.4295 213.956C51.1095 214.496 50.6695 214.919 50.1095 215.226C49.5562 215.533 48.9329 215.686 48.2395 215.686ZM48.2395 215.026C48.7929 215.026 49.2929 214.903 49.7395 214.656C50.1862 214.403 50.5362 214.056 50.7895 213.616C51.0429 213.169 51.1695 212.673 51.1695 212.126C51.1695 211.579 51.0429 211.086 50.7895 210.646C50.5362 210.199 50.1862 209.853 49.7395 209.606C49.2929 209.353 48.7929 209.226 48.2395 209.226C47.6862 209.226 47.1829 209.353 46.7295 209.606C46.2829 209.853 45.9295 210.199 45.6695 210.646C45.4162 211.086 45.2895 211.579 45.2895 212.126C45.2895 212.673 45.4162 213.169 45.6695 213.616C45.9295 214.056 46.2829 214.403 46.7295 214.656C47.1829 214.903 47.6862 215.026 48.2395 215.026ZM54.3082 209.266V212.016H57.9282V212.656H54.3082V215.626H53.5682V208.626H58.3682V209.266H54.3082ZM60.6363 209.266V212.016H64.2563V212.656H60.6363V215.626H59.8963V208.626H64.6963V209.266H60.6363Z" fill="black"/>
<path d="M9.41797 0L9.41797 1.1898L9.41797 7.47874L1.3673 7.47875L0.667367 7.47874L9.41797 0Z" fill="black"/>
<path d="M90.6245 120L90.6245 118.81L90.6245 112.51L98.9708 112.51L99.3752 112.51L90.6245 120Z" fill="black"/>
<rect x="1.66748" y="8.47876" width="87.9575" height="110.521" fill="white" stroke="black" stroke-width="2"/>
<path d="M5.86768 4.73938H93.8252V115.261H5.86768V4.73938Z" fill="white" stroke="black" stroke-width="2"/>
<rect x="10.418" y="1" width="87.9575" height="110.521" fill="white" stroke="black" stroke-width="2"/>
<path d="M1.03032 118.921L2.05073 119.912L10.7242 111.984L9.83862 111.144L1.03032 118.921Z" fill="black"/>
<rect x="41.4204" y="38.5737" width="18.2516" height="35.7139" rx="4.5" fill="white" stroke="black"/>
<path d="M53.408 71.1625L63.2492 71.1625C64.5907 71.1625 65.2615 71.1625 65.7936 70.9519C66.5638 70.6469 67.1736 70.0371 67.4785 69.2669C67.6892 68.7348 67.6892 68.0641 67.6892 66.7225L67.6892 64.4288L58.1186 55.6699L58.1186 55.6699C57.7119 55.2977 57.5086 55.1116 57.2824 54.9688C56.9555 54.7623 56.5918 54.6211 56.2113 54.5526C55.948 54.5053 55.6724 54.5053 55.121 54.5053L43.8872 54.5053L43.8872 59.761C43.8872 60.3456 43.8872 60.638 43.94 60.9156C44.0163 61.317 44.1738 61.6985 44.4027 62.0368C44.5612 62.2709 44.7674 62.4781 45.1797 62.8926L53.408 71.1625Z" fill="white"/>
<path d="M53.408 71.1625L63.2492 71.1625C64.5907 71.1625 65.2615 71.1625 65.7936 70.9519C66.5638 70.6469 67.1736 70.0371 67.4785 69.2669C67.6892 68.7348 67.6892 68.0641 67.6892 66.7225L67.6892 64.4288M53.408 71.1625L53.408 64.4288M53.408 71.1625L45.1797 62.8926C44.7674 62.4781 44.5612 62.2709 44.4027 62.0368C44.1738 61.6985 44.0163 61.317 43.94 60.9156C43.8872 60.638 43.8872 60.3456 43.8872 59.761L43.8872 54.5053M67.6892 64.4288L53.408 64.4288M67.6892 64.4288L58.1186 55.6699C57.7119 55.2977 57.5086 55.1116 57.2824 54.9688C56.9555 54.7623 56.5918 54.6211 56.2113 54.5526C55.948 54.5053 55.6724 54.5053 55.121 54.5053L43.8872 54.5053M53.408 64.4288L43.8872 54.5053" stroke="black"/>
<path d="M47.3596 28.4169C46.6663 28.4169 46.0363 28.2636 45.4696 27.9569C44.9096 27.6436 44.4696 27.2169 44.1496 26.6769C43.8363 26.1369 43.6796 25.5303 43.6796 24.8569C43.6796 24.1836 43.8363 23.5769 44.1496 23.0369C44.4696 22.4969 44.9096 22.0736 45.4696 21.7669C46.0363 21.4536 46.6663 21.2969 47.3596 21.2969C48.053 21.2969 48.6763 21.4503 49.2296 21.7569C49.7896 22.0636 50.2296 22.4903 50.5496 23.0369C50.8696 23.5769 51.0296 24.1836 51.0296 24.8569C51.0296 25.5303 50.8696 26.1403 50.5496 26.6869C50.2296 27.2269 49.7896 27.6503 49.2296 27.9569C48.6763 28.2636 48.053 28.4169 47.3596 28.4169ZM47.3596 27.7569C47.913 27.7569 48.413 27.6336 48.8596 27.3869C49.3063 27.1336 49.6563 26.7869 49.9096 26.3469C50.163 25.9003 50.2896 25.4036 50.2896 24.8569C50.2896 24.3103 50.163 23.8169 49.9096 23.3769C49.6563 22.9303 49.3063 22.5836 48.8596 22.3369C48.413 22.0836 47.913 21.9569 47.3596 21.9569C46.8063 21.9569 46.303 22.0836 45.8496 22.3369C45.403 22.5836 45.0496 22.9303 44.7896 23.3769C44.5363 23.8169 44.4096 24.3103 44.4096 24.8569C44.4096 25.4036 44.5363 25.9003 44.7896 26.3469C45.0496 26.7869 45.403 27.1336 45.8496 27.3869C46.303 27.6336 46.8063 27.7569 47.3596 27.7569ZM58.5383 21.3569V28.3569H57.9283L53.4283 22.6769V28.3569H52.6883V21.3569H53.2983L57.8083 27.0369V21.3569H58.5383Z" fill="black"/>
<path d="M48.2493 93.686C47.556 93.686 46.926 93.5327 46.3593 93.226C45.7993 92.9127 45.3593 92.486 45.0393 91.946C44.726 91.406 44.5693 90.7994 44.5693 90.126C44.5693 89.4527 44.726 88.846 45.0393 88.306C45.3593 87.766 45.7993 87.3427 46.3593 87.036C46.926 86.7227 47.556 86.566 48.2493 86.566C48.9426 86.566 49.566 86.7194 50.1193 87.026C50.6793 87.3327 51.1193 87.7594 51.4393 88.306C51.7593 88.846 51.9193 89.4527 51.9193 90.126C51.9193 90.7994 51.7593 91.4094 51.4393 91.956C51.1193 92.496 50.6793 92.9194 50.1193 93.226C49.566 93.5327 48.9426 93.686 48.2493 93.686ZM48.2493 93.026C48.8026 93.026 49.3026 92.9027 49.7493 92.656C50.196 92.4027 50.546 92.056 50.7993 91.616C51.0526 91.1694 51.1793 90.6727 51.1793 90.126C51.1793 89.5794 51.0526 89.086 50.7993 88.646C50.546 88.1994 50.196 87.8527 49.7493 87.606C49.3026 87.3527 48.8026 87.226 48.2493 87.226C47.696 87.226 47.1926 87.3527 46.7393 87.606C46.2926 87.8527 45.9393 88.1994 45.6793 88.646C45.426 89.086 45.2993 89.5794 45.2993 90.126C45.2993 90.6727 45.426 91.1694 45.6793 91.616C45.9393 92.056 46.2926 92.4027 46.7393 92.656C47.1926 92.9027 47.696 93.026 48.2493 93.026ZM54.318 87.266V90.016H57.938V90.656H54.318V93.626H53.578V86.626H58.378V87.266H54.318ZM60.6461 87.266V90.016H64.2661V90.656H60.6461V93.626H59.9061V86.626H64.7061V87.266H60.6461Z" fill="black"/>
</svg>
