<svg width="140" height="218" viewBox="0 0 140 218" fill="none" xmlns="http://www.w3.org/2000/svg">
<rect x="67" width="5" height="128" fill="#F1F1F1"/>
<path d="M62 132.5C62 128.358 65.3579 125 69.5 125C73.6421 125 77 128.358 77 132.5V140H62V132.5Z" fill="#CCE437"/>
<path d="M53 145C53 136.716 59.7157 130 68 130H71C79.2843 130 86 136.716 86 145V163H53V145Z" fill="#CCE437"/>
<path d="M0 198C0 164.863 26.8629 138 60 138H80C113.137 138 140 164.863 140 198V218H0V198Z" fill="#CCE437"/>
<mask id="mask0" style="mask-type:alpha" maskUnits="userSpaceOnUse" x="0" y="138" width="140" height="80">
<path d="M0 198C0 164.863 26.8629 138 60 138H80C113.137 138 140 164.863 140 198V218H0V198Z" fill="#CCE437"/>
</mask>
<g mask="url(#mask0)">
<g filter="url(#filter0_f)">
<path d="M84 138H90.1353H93.203H94.7052C95.4054 138 96.1028 138.086 96.782 138.256C97.4611 138.426 98.1586 138.512 98.8587 138.512H99.0428C99.9178 138.512 100.789 138.627 101.634 138.853L104.195 139.537L106.992 140.311C108.056 140.605 108.589 140.752 109.116 140.913C110.758 141.412 112.368 142.01 113.939 142.702C114.443 142.924 114.943 143.16 115.942 143.631L120.301 145.688L124.391 148.25L127.97 150.812C128.654 151.302 128.996 151.547 129.332 151.798C130.782 152.879 132.162 154.051 133.465 155.307C133.767 155.598 134.064 155.896 134.658 156.491L135.639 157.475L141.263 164.65L143.82 168.75L146.376 173.362L148.421 178.487L149.955 184.125L150.977 187.712L151.489 191.3L152 198.987V220H109.564C109.564 220 108.03 189.25 104.195 178.487C100.361 167.725 101.895 170.287 96.782 156.45C91.6692 142.612 84 138 84 138Z" fill="url(#paint0_linear)"/>
</g>
</g>
<defs>
<filter id="filter0_f" x="78" y="132" width="80" height="94" filterUnits="userSpaceOnUse" color-interpolation-filters="sRGB">
<feFlood flood-opacity="0" result="BackgroundImageFix"/>
<feBlend mode="normal" in="SourceGraphic" in2="BackgroundImageFix" result="shape"/>
<feGaussianBlur stdDeviation="3" result="effect1_foregroundBlur"/>
</filter>
<linearGradient id="paint0_linear" x1="254.767" y1="170.8" x2="46.662" y2="196.305" gradientUnits="userSpaceOnUse">
<stop offset="0.0358" stop-color="#1B1C17"/>
<stop offset="1" stop-color="#1B1C17" stop-opacity="0"/>
</linearGradient>
</defs>
</svg>
