<svg width="48" height="587" viewBox="0 0 48 587" fill="none" xmlns="http://www.w3.org/2000/svg">
<path d="M26.1226 471.828L26.0577 472.004L26.1255 472.18C28.875 479.304 31.0545 485.227 32.5381 490.106C34.0242 494.994 34.7984 498.793 34.7659 501.682C34.7335 504.553 33.9078 506.455 32.2572 507.667C30.5707 508.906 27.9284 509.5 24.0919 509.5C20.2489 509.5 17.4634 508.999 15.5947 507.855C13.7699 506.738 12.7529 504.964 12.5413 502.212C12.3274 499.429 12.9435 495.687 14.3817 490.733C15.8172 485.788 18.0576 479.682 21.0561 472.186L21.1303 472L21.0561 471.814C18.3076 464.943 16.192 459.211 14.8032 454.476C13.4121 449.734 12.7633 446.034 12.9171 443.215C13.0697 440.417 14.0068 438.535 15.7584 437.326C17.5444 436.092 20.2586 435.5 24.0919 435.5C27.9079 435.5 30.4047 436.274 31.9305 437.701C33.4444 439.117 34.1055 441.274 34.0161 444.298C33.9266 447.323 33.0867 451.131 31.6941 455.738C30.3034 460.339 28.3731 465.701 26.1226 471.828Z" fill="white" stroke="black"/>
<path d="M21 471L23.5 471.5L26 471V473L23.5 472.5L21 473V471Z" fill="black"/>
<path d="M26.1226 471.828L26.0577 472.004L26.1255 472.18C28.875 479.304 31.0545 485.227 32.5381 490.106C34.0242 494.994 34.7984 498.793 34.7659 501.682C34.7335 504.553 33.9078 506.455 32.2572 507.667C30.5707 508.906 27.9284 509.5 24.0919 509.5C20.2489 509.5 17.4634 508.999 15.5947 507.855C13.7699 506.738 12.7529 504.964 12.5413 502.212C12.3274 499.429 12.9435 495.687 14.3817 490.733C15.8172 485.788 18.0576 479.682 21.0561 472.186L21.1303 472L21.0561 471.814C18.3076 464.943 16.192 459.211 14.8032 454.476C13.4121 449.734 12.7633 446.034 12.9171 443.215C13.0697 440.417 14.0068 438.535 15.7584 437.326C17.5444 436.092 20.2586 435.5 24.0919 435.5C27.9079 435.5 30.4047 436.274 31.9305 437.701C33.4444 439.117 34.1055 441.274 34.0161 444.298C33.9266 447.323 33.0867 451.131 31.6941 455.738C30.3034 460.339 28.3731 465.701 26.1226 471.828Z" fill="white" stroke="black"/>
<path d="M21 471L23.5 471.5L26 471V473L23.5 472.5L21 473V471Z" fill="black"/>
<path d="M26.1226 471.828L26.0577 472.004L26.1255 472.18C28.875 479.304 31.0545 485.227 32.5381 490.106C34.0242 494.994 34.7984 498.793 34.7659 501.682C34.7335 504.553 33.9078 506.455 32.2572 507.667C30.5707 508.906 27.9284 509.5 24.0919 509.5C20.2489 509.5 17.4634 508.999 15.5947 507.855C13.7699 506.738 12.7529 504.964 12.5413 502.212C12.3274 499.429 12.9435 495.687 14.3817 490.733C15.8172 485.788 18.0576 479.682 21.0561 472.186L21.1303 472L21.0561 471.814C18.3076 464.943 16.192 459.211 14.8032 454.476C13.4121 449.734 12.7633 446.034 12.9171 443.215C13.0697 440.417 14.0068 438.535 15.7584 437.326C17.5444 436.092 20.2586 435.5 24.0919 435.5C27.9079 435.5 30.4047 436.274 31.9305 437.701C33.4444 439.117 34.1055 441.274 34.0161 444.298C33.9266 447.323 33.0867 451.131 31.6941 455.738C30.3034 460.339 28.3731 465.701 26.1226 471.828Z" fill="white" stroke="black"/>
<path d="M21 471L23.5 471.5L26 471V473L23.5 472.5L21 473V471Z" fill="black"/>
<path d="M26.1226 471.828L26.0577 472.004L26.1255 472.18C28.875 479.304 31.0545 485.227 32.5381 490.106C34.0242 494.994 34.7984 498.793 34.7659 501.682C34.7335 504.553 33.9078 506.455 32.2572 507.667C30.5707 508.906 27.9284 509.5 24.0919 509.5C20.2489 509.5 17.4634 508.999 15.5947 507.855C13.7699 506.738 12.7529 504.964 12.5413 502.212C12.3274 499.429 12.9435 495.687 14.3817 490.733C15.8172 485.788 18.0576 479.682 21.0561 472.186L21.1303 472L21.0561 471.814C18.3076 464.943 16.192 459.211 14.8032 454.476C13.4121 449.734 12.7633 446.034 12.9171 443.215C13.0697 440.417 14.0068 438.535 15.7584 437.326C17.5444 436.092 20.2586 435.5 24.0919 435.5C27.9079 435.5 30.4047 436.274 31.9305 437.701C33.4444 439.117 34.1055 441.274 34.0161 444.298C33.9266 447.323 33.0867 451.131 31.6941 455.738C30.3034 460.339 28.3731 465.701 26.1226 471.828Z" fill="white" stroke="black"/>
<path d="M21 471L23.5 471.5L26 471V473L23.5 472.5L21 473V471Z" fill="black"/>
<path d="M26.1226 408.828L26.0577 409.004L26.1255 409.18C28.875 416.304 31.0545 422.227 32.5381 427.106C34.0242 431.994 34.7984 435.793 34.7659 438.682C34.7335 441.553 33.9078 443.455 32.2572 444.667C30.5707 445.906 27.9284 446.5 24.0919 446.5C20.2489 446.5 17.4634 445.999 15.5947 444.855C13.7699 443.738 12.7529 441.964 12.5413 439.212C12.3274 436.429 12.9435 432.687 14.3817 427.733C15.8172 422.788 18.0576 416.682 21.0561 409.186L21.1303 409L21.0561 408.814C18.3076 401.943 16.192 396.211 14.8032 391.476C13.4121 386.734 12.7633 383.034 12.9171 380.215C13.0697 377.417 14.0068 375.535 15.7584 374.326C17.5444 373.092 20.2586 372.5 24.0919 372.5C27.9079 372.5 30.4047 373.274 31.9305 374.701C33.4444 376.117 34.1055 378.274 34.0161 381.298C33.9266 384.323 33.0867 388.131 31.6941 392.738C30.3034 397.339 28.3731 402.701 26.1226 408.828Z" fill="white" stroke="black"/>
<path d="M21 408L23.5 408.5L26 408V410L23.5 409.5L21 410V408Z" fill="black"/>
<path d="M26.1226 408.828L26.0577 409.004L26.1255 409.18C28.875 416.304 31.0545 422.227 32.5381 427.106C34.0242 431.994 34.7984 435.793 34.7659 438.682C34.7335 441.553 33.9078 443.455 32.2572 444.667C30.5707 445.906 27.9284 446.5 24.0919 446.5C20.2489 446.5 17.4634 445.999 15.5947 444.855C13.7699 443.738 12.7529 441.964 12.5413 439.212C12.3274 436.429 12.9435 432.687 14.3817 427.733C15.8172 422.788 18.0576 416.682 21.0561 409.186L21.1303 409L21.0561 408.814C18.3076 401.943 16.192 396.211 14.8032 391.476C13.4121 386.734 12.7633 383.034 12.9171 380.215C13.0697 377.417 14.0068 375.535 15.7584 374.326C17.5444 373.092 20.2586 372.5 24.0919 372.5C27.9079 372.5 30.4047 373.274 31.9305 374.701C33.4444 376.117 34.1055 378.274 34.0161 381.298C33.9266 384.323 33.0867 388.131 31.6941 392.738C30.3034 397.339 28.3731 402.701 26.1226 408.828Z" fill="white" stroke="black"/>
<path d="M21 408L23.5 408.5L26 408V410L23.5 409.5L21 410V408Z" fill="black"/>
<path d="M26.1226 408.828L26.0577 409.004L26.1255 409.18C28.875 416.304 31.0545 422.227 32.5381 427.106C34.0242 431.994 34.7984 435.793 34.7659 438.682C34.7335 441.553 33.9078 443.455 32.2572 444.667C30.5707 445.906 27.9284 446.5 24.0919 446.5C20.2489 446.5 17.4634 445.999 15.5947 444.855C13.7699 443.738 12.7529 441.964 12.5413 439.212C12.3274 436.429 12.9435 432.687 14.3817 427.733C15.8172 422.788 18.0576 416.682 21.0561 409.186L21.1303 409L21.0561 408.814C18.3076 401.943 16.192 396.211 14.8032 391.476C13.4121 386.734 12.7633 383.034 12.9171 380.215C13.0697 377.417 14.0068 375.535 15.7584 374.326C17.5444 373.092 20.2586 372.5 24.0919 372.5C27.9079 372.5 30.4047 373.274 31.9305 374.701C33.4444 376.117 34.1055 378.274 34.0161 381.298C33.9266 384.323 33.0867 388.131 31.6941 392.738C30.3034 397.339 28.3731 402.701 26.1226 408.828Z" fill="white" stroke="black"/>
<path d="M21 408L23.5 408.5L26 408V410L23.5 409.5L21 410V408Z" fill="black"/>
<path d="M26.1226 408.828L26.0577 409.004L26.1255 409.18C28.875 416.304 31.0545 422.227 32.5381 427.106C34.0242 431.994 34.7984 435.793 34.7659 438.682C34.7335 441.553 33.9078 443.455 32.2572 444.667C30.5707 445.906 27.9284 446.5 24.0919 446.5C20.2489 446.5 17.4634 445.999 15.5947 444.855C13.7699 443.738 12.7529 441.964 12.5413 439.212C12.3274 436.429 12.9435 432.687 14.3817 427.733C15.8172 422.788 18.0576 416.682 21.0561 409.186L21.1303 409L21.0561 408.814C18.3076 401.943 16.192 396.211 14.8032 391.476C13.4121 386.734 12.7633 383.034 12.9171 380.215C13.0697 377.417 14.0068 375.535 15.7584 374.326C17.5444 373.092 20.2586 372.5 24.0919 372.5C27.9079 372.5 30.4047 373.274 31.9305 374.701C33.4444 376.117 34.1055 378.274 34.0161 381.298C33.9266 384.323 33.0867 388.131 31.6941 392.738C30.3034 397.339 28.3731 402.701 26.1226 408.828Z" fill="white" stroke="black"/>
<path d="M21 408L23.5 408.5L26 408V410L23.5 409.5L21 410V408Z" fill="black"/>
<path d="M26.1226 347.828L26.0577 348.004L26.1255 348.18C28.875 355.304 31.0545 361.227 32.5381 366.106C34.0242 370.994 34.7984 374.793 34.7659 377.682C34.7335 380.553 33.9078 382.455 32.2572 383.667C30.5707 384.906 27.9284 385.5 24.0919 385.5C20.2489 385.5 17.4634 384.999 15.5947 383.855C13.7699 382.738 12.7529 380.964 12.5413 378.212C12.3274 375.429 12.9435 371.687 14.3817 366.733C15.8172 361.788 18.0576 355.682 21.0561 348.186L21.1303 348L21.0561 347.814C18.3076 340.943 16.192 335.211 14.8032 330.476C13.4121 325.734 12.7633 322.034 12.9171 319.215C13.0697 316.417 14.0068 314.535 15.7584 313.326C17.5444 312.092 20.2586 311.5 24.0919 311.5C27.9079 311.5 30.4047 312.274 31.9305 313.701C33.4444 315.117 34.1055 317.274 34.0161 320.298C33.9266 323.323 33.0867 327.131 31.6941 331.738C30.3034 336.339 28.3731 341.701 26.1226 347.828Z" fill="white" stroke="black"/>
<path d="M21 347L23.5 347.5L26 347V349L23.5 348.5L21 349V347Z" fill="black"/>
<path d="M26.1226 347.828L26.0577 348.004L26.1255 348.18C28.875 355.304 31.0545 361.227 32.5381 366.106C34.0242 370.994 34.7984 374.793 34.7659 377.682C34.7335 380.553 33.9078 382.455 32.2572 383.667C30.5707 384.906 27.9284 385.5 24.0919 385.5C20.2489 385.5 17.4634 384.999 15.5947 383.855C13.7699 382.738 12.7529 380.964 12.5413 378.212C12.3274 375.429 12.9435 371.687 14.3817 366.733C15.8172 361.788 18.0576 355.682 21.0561 348.186L21.1303 348L21.0561 347.814C18.3076 340.943 16.192 335.211 14.8032 330.476C13.4121 325.734 12.7633 322.034 12.9171 319.215C13.0697 316.417 14.0068 314.535 15.7584 313.326C17.5444 312.092 20.2586 311.5 24.0919 311.5C27.9079 311.5 30.4047 312.274 31.9305 313.701C33.4444 315.117 34.1055 317.274 34.0161 320.298C33.9266 323.323 33.0867 327.131 31.6941 331.738C30.3034 336.339 28.3731 341.701 26.1226 347.828Z" fill="white" stroke="black"/>
<path d="M21 347L23.5 347.5L26 347V349L23.5 348.5L21 349V347Z" fill="black"/>
<path d="M26.1226 347.828L26.0577 348.004L26.1255 348.18C28.875 355.304 31.0545 361.227 32.5381 366.106C34.0242 370.994 34.7984 374.793 34.7659 377.682C34.7335 380.553 33.9078 382.455 32.2572 383.667C30.5707 384.906 27.9284 385.5 24.0919 385.5C20.2489 385.5 17.4634 384.999 15.5947 383.855C13.7699 382.738 12.7529 380.964 12.5413 378.212C12.3274 375.429 12.9435 371.687 14.3817 366.733C15.8172 361.788 18.0576 355.682 21.0561 348.186L21.1303 348L21.0561 347.814C18.3076 340.943 16.192 335.211 14.8032 330.476C13.4121 325.734 12.7633 322.034 12.9171 319.215C13.0697 316.417 14.0068 314.535 15.7584 313.326C17.5444 312.092 20.2586 311.5 24.0919 311.5C27.9079 311.5 30.4047 312.274 31.9305 313.701C33.4444 315.117 34.1055 317.274 34.0161 320.298C33.9266 323.323 33.0867 327.131 31.6941 331.738C30.3034 336.339 28.3731 341.701 26.1226 347.828Z" fill="white" stroke="black"/>
<path d="M21 347L23.5 347.5L26 347V349L23.5 348.5L21 349V347Z" fill="black"/>
<path d="M26.1226 347.828L26.0577 348.004L26.1255 348.18C28.875 355.304 31.0545 361.227 32.5381 366.106C34.0242 370.994 34.7984 374.793 34.7659 377.682C34.7335 380.553 33.9078 382.455 32.2572 383.667C30.5707 384.906 27.9284 385.5 24.0919 385.5C20.2489 385.5 17.4634 384.999 15.5947 383.855C13.7699 382.738 12.7529 380.964 12.5413 378.212C12.3274 375.429 12.9435 371.687 14.3817 366.733C15.8172 361.788 18.0576 355.682 21.0561 348.186L21.1303 348L21.0561 347.814C18.3076 340.943 16.192 335.211 14.8032 330.476C13.4121 325.734 12.7633 322.034 12.9171 319.215C13.0697 316.417 14.0068 314.535 15.7584 313.326C17.5444 312.092 20.2586 311.5 24.0919 311.5C27.9079 311.5 30.4047 312.274 31.9305 313.701C33.4444 315.117 34.1055 317.274 34.0161 320.298C33.9266 323.323 33.0867 327.131 31.6941 331.738C30.3034 336.339 28.3731 341.701 26.1226 347.828Z" fill="white" stroke="black"/>
<path d="M21 347L23.5 347.5L26 347V349L23.5 348.5L21 349V347Z" fill="black"/>
<path d="M26.1226 284.828L26.0577 285.004L26.1255 285.18C28.875 292.304 31.0545 298.227 32.5381 303.106C34.0242 307.994 34.7984 311.793 34.7659 314.682C34.7335 317.553 33.9078 319.455 32.2572 320.667C30.5707 321.906 27.9284 322.5 24.0919 322.5C20.2489 322.5 17.4634 321.999 15.5947 320.855C13.7699 319.738 12.7529 317.964 12.5413 315.212C12.3274 312.429 12.9435 308.687 14.3817 303.733C15.8172 298.788 18.0576 292.682 21.0561 285.186L21.1303 285L21.0561 284.814C18.3076 277.943 16.192 272.211 14.8032 267.476C13.4121 262.734 12.7633 259.034 12.9171 256.215C13.0697 253.417 14.0068 251.535 15.7584 250.326C17.5444 249.092 20.2586 248.5 24.0919 248.5C27.9079 248.5 30.4047 249.274 31.9305 250.701C33.4444 252.117 34.1055 254.274 34.0161 257.298C33.9266 260.323 33.0867 264.131 31.6941 268.738C30.3034 273.339 28.3731 278.701 26.1226 284.828Z" fill="white" stroke="black"/>
<path d="M21 284L23.5 284.5L26 284V286L23.5 285.5L21 286V284Z" fill="black"/>
<path d="M26.1226 284.828L26.0577 285.004L26.1255 285.18C28.875 292.304 31.0545 298.227 32.5381 303.106C34.0242 307.994 34.7984 311.793 34.7659 314.682C34.7335 317.553 33.9078 319.455 32.2572 320.667C30.5707 321.906 27.9284 322.5 24.0919 322.5C20.2489 322.5 17.4634 321.999 15.5947 320.855C13.7699 319.738 12.7529 317.964 12.5413 315.212C12.3274 312.429 12.9435 308.687 14.3817 303.733C15.8172 298.788 18.0576 292.682 21.0561 285.186L21.1303 285L21.0561 284.814C18.3076 277.943 16.192 272.211 14.8032 267.476C13.4121 262.734 12.7633 259.034 12.9171 256.215C13.0697 253.417 14.0068 251.535 15.7584 250.326C17.5444 249.092 20.2586 248.5 24.0919 248.5C27.9079 248.5 30.4047 249.274 31.9305 250.701C33.4444 252.117 34.1055 254.274 34.0161 257.298C33.9266 260.323 33.0867 264.131 31.6941 268.738C30.3034 273.339 28.3731 278.701 26.1226 284.828Z" fill="white" stroke="black"/>
<path d="M21 284L23.5 284.5L26 284V286L23.5 285.5L21 286V284Z" fill="black"/>
<path d="M26.1226 284.828L26.0577 285.004L26.1255 285.18C28.875 292.304 31.0545 298.227 32.5381 303.106C34.0242 307.994 34.7984 311.793 34.7659 314.682C34.7335 317.553 33.9078 319.455 32.2572 320.667C30.5707 321.906 27.9284 322.5 24.0919 322.5C20.2489 322.5 17.4634 321.999 15.5947 320.855C13.7699 319.738 12.7529 317.964 12.5413 315.212C12.3274 312.429 12.9435 308.687 14.3817 303.733C15.8172 298.788 18.0576 292.682 21.0561 285.186L21.1303 285L21.0561 284.814C18.3076 277.943 16.192 272.211 14.8032 267.476C13.4121 262.734 12.7633 259.034 12.9171 256.215C13.0697 253.417 14.0068 251.535 15.7584 250.326C17.5444 249.092 20.2586 248.5 24.0919 248.5C27.9079 248.5 30.4047 249.274 31.9305 250.701C33.4444 252.117 34.1055 254.274 34.0161 257.298C33.9266 260.323 33.0867 264.131 31.6941 268.738C30.3034 273.339 28.3731 278.701 26.1226 284.828Z" fill="white" stroke="black"/>
<path d="M21 284L23.5 284.5L26 284V286L23.5 285.5L21 286V284Z" fill="black"/>
<path d="M26.1226 284.828L26.0577 285.004L26.1255 285.18C28.875 292.304 31.0545 298.227 32.5381 303.106C34.0242 307.994 34.7984 311.793 34.7659 314.682C34.7335 317.553 33.9078 319.455 32.2572 320.667C30.5707 321.906 27.9284 322.5 24.0919 322.5C20.2489 322.5 17.4634 321.999 15.5947 320.855C13.7699 319.738 12.7529 317.964 12.5413 315.212C12.3274 312.429 12.9435 308.687 14.3817 303.733C15.8172 298.788 18.0576 292.682 21.0561 285.186L21.1303 285L21.0561 284.814C18.3076 277.943 16.192 272.211 14.8032 267.476C13.4121 262.734 12.7633 259.034 12.9171 256.215C13.0697 253.417 14.0068 251.535 15.7584 250.326C17.5444 249.092 20.2586 248.5 24.0919 248.5C27.9079 248.5 30.4047 249.274 31.9305 250.701C33.4444 252.117 34.1055 254.274 34.0161 257.298C33.9266 260.323 33.0867 264.131 31.6941 268.738C30.3034 273.339 28.3731 278.701 26.1226 284.828Z" fill="white" stroke="black"/>
<path d="M21 284L23.5 284.5L26 284V286L23.5 285.5L21 286V284Z" fill="black"/>
<path d="M26.1226 223.828L26.0577 224.004L26.1255 224.18C28.875 231.304 31.0545 237.227 32.5381 242.106C34.0242 246.994 34.7984 250.793 34.7659 253.682C34.7335 256.553 33.9078 258.455 32.2572 259.667C30.5707 260.906 27.9284 261.5 24.0919 261.5C20.2489 261.5 17.4634 260.999 15.5947 259.855C13.7699 258.738 12.7529 256.964 12.5413 254.212C12.3274 251.429 12.9435 247.687 14.3817 242.733C15.8172 237.788 18.0576 231.682 21.0561 224.186L21.1303 224L21.0561 223.814C18.3076 216.943 16.192 211.211 14.8032 206.476C13.4121 201.734 12.7633 198.034 12.9171 195.215C13.0697 192.417 14.0068 190.535 15.7584 189.326C17.5444 188.092 20.2586 187.5 24.0919 187.5C27.9079 187.5 30.4047 188.274 31.9305 189.701C33.4444 191.117 34.1055 193.274 34.0161 196.298C33.9266 199.323 33.0867 203.131 31.6941 207.738C30.3034 212.339 28.3731 217.701 26.1226 223.828Z" fill="white" stroke="black"/>
<path d="M21 223L23.5 223.5L26 223V225L23.5 224.5L21 225V223Z" fill="black"/>
<path d="M26.1226 223.828L26.0577 224.004L26.1255 224.18C28.875 231.304 31.0545 237.227 32.5381 242.106C34.0242 246.994 34.7984 250.793 34.7659 253.682C34.7335 256.553 33.9078 258.455 32.2572 259.667C30.5707 260.906 27.9284 261.5 24.0919 261.5C20.2489 261.5 17.4634 260.999 15.5947 259.855C13.7699 258.738 12.7529 256.964 12.5413 254.212C12.3274 251.429 12.9435 247.687 14.3817 242.733C15.8172 237.788 18.0576 231.682 21.0561 224.186L21.1303 224L21.0561 223.814C18.3076 216.943 16.192 211.211 14.8032 206.476C13.4121 201.734 12.7633 198.034 12.9171 195.215C13.0697 192.417 14.0068 190.535 15.7584 189.326C17.5444 188.092 20.2586 187.5 24.0919 187.5C27.9079 187.5 30.4047 188.274 31.9305 189.701C33.4444 191.117 34.1055 193.274 34.0161 196.298C33.9266 199.323 33.0867 203.131 31.6941 207.738C30.3034 212.339 28.3731 217.701 26.1226 223.828Z" fill="white" stroke="black"/>
<path d="M21 223L23.5 223.5L26 223V225L23.5 224.5L21 225V223Z" fill="black"/>
<path d="M26.1226 223.828L26.0577 224.004L26.1255 224.18C28.875 231.304 31.0545 237.227 32.5381 242.106C34.0242 246.994 34.7984 250.793 34.7659 253.682C34.7335 256.553 33.9078 258.455 32.2572 259.667C30.5707 260.906 27.9284 261.5 24.0919 261.5C20.2489 261.5 17.4634 260.999 15.5947 259.855C13.7699 258.738 12.7529 256.964 12.5413 254.212C12.3274 251.429 12.9435 247.687 14.3817 242.733C15.8172 237.788 18.0576 231.682 21.0561 224.186L21.1303 224L21.0561 223.814C18.3076 216.943 16.192 211.211 14.8032 206.476C13.4121 201.734 12.7633 198.034 12.9171 195.215C13.0697 192.417 14.0068 190.535 15.7584 189.326C17.5444 188.092 20.2586 187.5 24.0919 187.5C27.9079 187.5 30.4047 188.274 31.9305 189.701C33.4444 191.117 34.1055 193.274 34.0161 196.298C33.9266 199.323 33.0867 203.131 31.6941 207.738C30.3034 212.339 28.3731 217.701 26.1226 223.828Z" fill="white" stroke="black"/>
<path d="M21 223L23.5 223.5L26 223V225L23.5 224.5L21 225V223Z" fill="black"/>
<path d="M26.1226 223.828L26.0577 224.004L26.1255 224.18C28.875 231.304 31.0545 237.227 32.5381 242.106C34.0242 246.994 34.7984 250.793 34.7659 253.682C34.7335 256.553 33.9078 258.455 32.2572 259.667C30.5707 260.906 27.9284 261.5 24.0919 261.5C20.2489 261.5 17.4634 260.999 15.5947 259.855C13.7699 258.738 12.7529 256.964 12.5413 254.212C12.3274 251.429 12.9435 247.687 14.3817 242.733C15.8172 237.788 18.0576 231.682 21.0561 224.186L21.1303 224L21.0561 223.814C18.3076 216.943 16.192 211.211 14.8032 206.476C13.4121 201.734 12.7633 198.034 12.9171 195.215C13.0697 192.417 14.0068 190.535 15.7584 189.326C17.5444 188.092 20.2586 187.5 24.0919 187.5C27.9079 187.5 30.4047 188.274 31.9305 189.701C33.4444 191.117 34.1055 193.274 34.0161 196.298C33.9266 199.323 33.0867 203.131 31.6941 207.738C30.3034 212.339 28.3731 217.701 26.1226 223.828Z" fill="white" stroke="black"/>
<path d="M21 223L23.5 223.5L26 223V225L23.5 224.5L21 225V223Z" fill="black"/>
<path d="M26.1226 160.828L26.0577 161.004L26.1255 161.18C28.875 168.304 31.0545 174.227 32.5381 179.106C34.0242 183.994 34.7984 187.793 34.7659 190.682C34.7335 193.553 33.9078 195.455 32.2572 196.667C30.5707 197.906 27.9284 198.5 24.0919 198.5C20.2489 198.5 17.4634 197.999 15.5947 196.855C13.7699 195.738 12.7529 193.964 12.5413 191.212C12.3274 188.429 12.9435 184.687 14.3817 179.733C15.8172 174.788 18.0576 168.682 21.0561 161.186L21.1303 161L21.0561 160.814C18.3076 153.943 16.192 148.211 14.8032 143.476C13.4121 138.734 12.7633 135.034 12.9171 132.215C13.0697 129.417 14.0068 127.535 15.7584 126.326C17.5444 125.092 20.2586 124.5 24.0919 124.5C27.9079 124.5 30.4047 125.274 31.9305 126.701C33.4444 128.117 34.1055 130.274 34.0161 133.298C33.9266 136.323 33.0867 140.131 31.6941 144.738C30.3034 149.339 28.3731 154.701 26.1226 160.828Z" fill="white" stroke="black"/>
<path d="M21 160L23.5 160.5L26 160V162L23.5 161.5L21 162V160Z" fill="black"/>
<path d="M26.1226 160.828L26.0577 161.004L26.1255 161.18C28.875 168.304 31.0545 174.227 32.5381 179.106C34.0242 183.994 34.7984 187.793 34.7659 190.682C34.7335 193.553 33.9078 195.455 32.2572 196.667C30.5707 197.906 27.9284 198.5 24.0919 198.5C20.2489 198.5 17.4634 197.999 15.5947 196.855C13.7699 195.738 12.7529 193.964 12.5413 191.212C12.3274 188.429 12.9435 184.687 14.3817 179.733C15.8172 174.788 18.0576 168.682 21.0561 161.186L21.1303 161L21.0561 160.814C18.3076 153.943 16.192 148.211 14.8032 143.476C13.4121 138.734 12.7633 135.034 12.9171 132.215C13.0697 129.417 14.0068 127.535 15.7584 126.326C17.5444 125.092 20.2586 124.5 24.0919 124.5C27.9079 124.5 30.4047 125.274 31.9305 126.701C33.4444 128.117 34.1055 130.274 34.0161 133.298C33.9266 136.323 33.0867 140.131 31.6941 144.738C30.3034 149.339 28.3731 154.701 26.1226 160.828Z" fill="white" stroke="black"/>
<path d="M21 160L23.5 160.5L26 160V162L23.5 161.5L21 162V160Z" fill="black"/>
<path d="M26.1226 160.828L26.0577 161.004L26.1255 161.18C28.875 168.304 31.0545 174.227 32.5381 179.106C34.0242 183.994 34.7984 187.793 34.7659 190.682C34.7335 193.553 33.9078 195.455 32.2572 196.667C30.5707 197.906 27.9284 198.5 24.0919 198.5C20.2489 198.5 17.4634 197.999 15.5947 196.855C13.7699 195.738 12.7529 193.964 12.5413 191.212C12.3274 188.429 12.9435 184.687 14.3817 179.733C15.8172 174.788 18.0576 168.682 21.0561 161.186L21.1303 161L21.0561 160.814C18.3076 153.943 16.192 148.211 14.8032 143.476C13.4121 138.734 12.7633 135.034 12.9171 132.215C13.0697 129.417 14.0068 127.535 15.7584 126.326C17.5444 125.092 20.2586 124.5 24.0919 124.5C27.9079 124.5 30.4047 125.274 31.9305 126.701C33.4444 128.117 34.1055 130.274 34.0161 133.298C33.9266 136.323 33.0867 140.131 31.6941 144.738C30.3034 149.339 28.3731 154.701 26.1226 160.828Z" fill="white" stroke="black"/>
<path d="M21 160L23.5 160.5L26 160V162L23.5 161.5L21 162V160Z" fill="black"/>
<path d="M26.1226 160.828L26.0577 161.004L26.1255 161.18C28.875 168.304 31.0545 174.227 32.5381 179.106C34.0242 183.994 34.7984 187.793 34.7659 190.682C34.7335 193.553 33.9078 195.455 32.2572 196.667C30.5707 197.906 27.9284 198.5 24.0919 198.5C20.2489 198.5 17.4634 197.999 15.5947 196.855C13.7699 195.738 12.7529 193.964 12.5413 191.212C12.3274 188.429 12.9435 184.687 14.3817 179.733C15.8172 174.788 18.0576 168.682 21.0561 161.186L21.1303 161L21.0561 160.814C18.3076 153.943 16.192 148.211 14.8032 143.476C13.4121 138.734 12.7633 135.034 12.9171 132.215C13.0697 129.417 14.0068 127.535 15.7584 126.326C17.5444 125.092 20.2586 124.5 24.0919 124.5C27.9079 124.5 30.4047 125.274 31.9305 126.701C33.4444 128.117 34.1055 130.274 34.0161 133.298C33.9266 136.323 33.0867 140.131 31.6941 144.738C30.3034 149.339 28.3731 154.701 26.1226 160.828Z" fill="white" stroke="black"/>
<path d="M21 160L23.5 160.5L26 160V162L23.5 161.5L21 162V160Z" fill="black"/>
<path d="M26.1226 99.8276L26.0577 100.004L26.1255 100.18C28.875 107.304 31.0545 113.227 32.5381 118.106C34.0242 122.994 34.7984 126.793 34.7659 129.682C34.7335 132.553 33.9078 134.455 32.2572 135.667C30.5707 136.906 27.9284 137.5 24.0919 137.5C20.2489 137.5 17.4634 136.999 15.5947 135.855C13.7699 134.738 12.7529 132.964 12.5413 130.212C12.3274 127.429 12.9435 123.687 14.3817 118.733C15.8172 113.788 18.0576 107.682 21.0561 100.186L21.1303 100L21.0561 99.8143C18.3076 92.9432 16.192 87.2109 14.8032 82.4765C13.4121 77.7339 12.7633 74.0343 12.9171 71.2147C13.0697 68.4172 14.0068 66.5348 15.7584 65.3255C17.5444 64.0924 20.2586 63.5 24.0919 63.5C27.9079 63.5 30.4047 64.2742 31.9305 65.7011C33.4444 67.117 34.1055 69.2744 34.0161 72.2977C33.9266 75.3233 33.0867 79.1311 31.6941 83.7381C30.3034 88.3393 28.3731 93.7012 26.1226 99.8276Z" fill="white" stroke="black"/>
<path d="M21 99L23.5 99.5L26 99V101L23.5 100.5L21 101V99Z" fill="black"/>
<path d="M26.1226 99.8276L26.0577 100.004L26.1255 100.18C28.875 107.304 31.0545 113.227 32.5381 118.106C34.0242 122.994 34.7984 126.793 34.7659 129.682C34.7335 132.553 33.9078 134.455 32.2572 135.667C30.5707 136.906 27.9284 137.5 24.0919 137.5C20.2489 137.5 17.4634 136.999 15.5947 135.855C13.7699 134.738 12.7529 132.964 12.5413 130.212C12.3274 127.429 12.9435 123.687 14.3817 118.733C15.8172 113.788 18.0576 107.682 21.0561 100.186L21.1303 100L21.0561 99.8143C18.3076 92.9432 16.192 87.2109 14.8032 82.4765C13.4121 77.7339 12.7633 74.0343 12.9171 71.2147C13.0697 68.4172 14.0068 66.5348 15.7584 65.3255C17.5444 64.0924 20.2586 63.5 24.0919 63.5C27.9079 63.5 30.4047 64.2742 31.9305 65.7011C33.4444 67.117 34.1055 69.2744 34.0161 72.2977C33.9266 75.3233 33.0867 79.1311 31.6941 83.7381C30.3034 88.3393 28.3731 93.7012 26.1226 99.8276Z" fill="white" stroke="black"/>
<path d="M21 99L23.5 99.5L26 99V101L23.5 100.5L21 101V99Z" fill="black"/>
<path d="M26.1226 99.8276L26.0577 100.004L26.1255 100.18C28.875 107.304 31.0545 113.227 32.5381 118.106C34.0242 122.994 34.7984 126.793 34.7659 129.682C34.7335 132.553 33.9078 134.455 32.2572 135.667C30.5707 136.906 27.9284 137.5 24.0919 137.5C20.2489 137.5 17.4634 136.999 15.5947 135.855C13.7699 134.738 12.7529 132.964 12.5413 130.212C12.3274 127.429 12.9435 123.687 14.3817 118.733C15.8172 113.788 18.0576 107.682 21.0561 100.186L21.1303 100L21.0561 99.8143C18.3076 92.9432 16.192 87.2109 14.8032 82.4765C13.4121 77.7339 12.7633 74.0343 12.9171 71.2147C13.0697 68.4172 14.0068 66.5348 15.7584 65.3255C17.5444 64.0924 20.2586 63.5 24.0919 63.5C27.9079 63.5 30.4047 64.2742 31.9305 65.7011C33.4444 67.117 34.1055 69.2744 34.0161 72.2977C33.9266 75.3233 33.0867 79.1311 31.6941 83.7381C30.3034 88.3393 28.3731 93.7012 26.1226 99.8276Z" fill="white" stroke="black"/>
<path d="M21 99L23.5 99.5L26 99V101L23.5 100.5L21 101V99Z" fill="black"/>
<path d="M26.1226 99.8276L26.0577 100.004L26.1255 100.18C28.875 107.304 31.0545 113.227 32.5381 118.106C34.0242 122.994 34.7984 126.793 34.7659 129.682C34.7335 132.553 33.9078 134.455 32.2572 135.667C30.5707 136.906 27.9284 137.5 24.0919 137.5C20.2489 137.5 17.4634 136.999 15.5947 135.855C13.7699 134.738 12.7529 132.964 12.5413 130.212C12.3274 127.429 12.9435 123.687 14.3817 118.733C15.8172 113.788 18.0576 107.682 21.0561 100.186L21.1303 100L21.0561 99.8143C18.3076 92.9432 16.192 87.2109 14.8032 82.4765C13.4121 77.7339 12.7633 74.0343 12.9171 71.2147C13.0697 68.4172 14.0068 66.5348 15.7584 65.3255C17.5444 64.0924 20.2586 63.5 24.0919 63.5C27.9079 63.5 30.4047 64.2742 31.9305 65.7011C33.4444 67.117 34.1055 69.2744 34.0161 72.2977C33.9266 75.3233 33.0867 79.1311 31.6941 83.7381C30.3034 88.3393 28.3731 93.7012 26.1226 99.8276Z" fill="white" stroke="black"/>
<path d="M21 99L23.5 99.5L26 99V101L23.5 100.5L21 101V99Z" fill="black"/>
<path d="M26.1226 36.8276L26.0577 37.0044L26.1255 37.18C28.875 44.3041 31.0545 50.2269 32.5381 55.1064C34.0242 59.9941 34.7984 63.7929 34.7659 66.6819C34.7335 69.5532 33.9078 71.4549 32.2572 72.6674C30.5707 73.9063 27.9284 74.5 24.0919 74.5C20.2489 74.5 17.4634 73.999 15.5947 72.8548C13.7699 71.7375 12.7529 69.9638 12.5413 67.2117C12.3274 64.429 12.9435 60.6872 14.3817 55.7332C15.8172 50.7884 18.0576 44.6816 21.0561 37.1857L21.1303 37L21.0561 36.8143C18.3076 29.9432 16.192 24.2109 14.8032 19.4765C13.4121 14.7339 12.7633 11.0343 12.9171 8.21473C13.0697 5.41718 14.0068 3.53483 15.7584 2.32553C17.5444 1.09242 20.2586 0.5 24.0919 0.5C27.9079 0.5 30.4047 1.27419 31.9305 2.70112C33.4444 4.11697 34.1055 6.27444 34.0161 9.29772C33.9266 12.3233 33.0867 16.1311 31.6941 20.7381C30.3034 25.3393 28.3731 30.7012 26.1226 36.8276Z" fill="white" stroke="black"/>
<path d="M21 36L23.5 36.5L26 36V38L23.5 37.5L21 38V36Z" fill="black"/>
<path d="M26.1226 36.8276L26.0577 37.0044L26.1255 37.18C28.875 44.3041 31.0545 50.2269 32.5381 55.1064C34.0242 59.9941 34.7984 63.7929 34.7659 66.6819C34.7335 69.5532 33.9078 71.4549 32.2572 72.6674C30.5707 73.9063 27.9284 74.5 24.0919 74.5C20.2489 74.5 17.4634 73.999 15.5947 72.8548C13.7699 71.7375 12.7529 69.9638 12.5413 67.2117C12.3274 64.429 12.9435 60.6872 14.3817 55.7332C15.8172 50.7884 18.0576 44.6816 21.0561 37.1857L21.1303 37L21.0561 36.8143C18.3076 29.9432 16.192 24.2109 14.8032 19.4765C13.4121 14.7339 12.7633 11.0343 12.9171 8.21473C13.0697 5.41718 14.0068 3.53483 15.7584 2.32553C17.5444 1.09242 20.2586 0.5 24.0919 0.5C27.9079 0.5 30.4047 1.27419 31.9305 2.70112C33.4444 4.11697 34.1055 6.27444 34.0161 9.29772C33.9266 12.3233 33.0867 16.1311 31.6941 20.7381C30.3034 25.3393 28.3731 30.7012 26.1226 36.8276Z" fill="white" stroke="black"/>
<path d="M21 36L23.5 36.5L26 36V38L23.5 37.5L21 38V36Z" fill="black"/>
<path d="M26.1226 36.8276L26.0577 37.0044L26.1255 37.18C28.875 44.3041 31.0545 50.2269 32.5381 55.1064C34.0242 59.9941 34.7984 63.7929 34.7659 66.6819C34.7335 69.5532 33.9078 71.4549 32.2572 72.6674C30.5707 73.9063 27.9284 74.5 24.0919 74.5C20.2489 74.5 17.4634 73.999 15.5947 72.8548C13.7699 71.7375 12.7529 69.9638 12.5413 67.2117C12.3274 64.429 12.9435 60.6872 14.3817 55.7332C15.8172 50.7884 18.0576 44.6816 21.0561 37.1857L21.1303 37L21.0561 36.8143C18.3076 29.9432 16.192 24.2109 14.8032 19.4765C13.4121 14.7339 12.7633 11.0343 12.9171 8.21473C13.0697 5.41718 14.0068 3.53483 15.7584 2.32553C17.5444 1.09242 20.2586 0.5 24.0919 0.5C27.9079 0.5 30.4047 1.27419 31.9305 2.70112C33.4444 4.11697 34.1055 6.27444 34.0161 9.29772C33.9266 12.3233 33.0867 16.1311 31.6941 20.7381C30.3034 25.3393 28.3731 30.7012 26.1226 36.8276Z" fill="white" stroke="black"/>
<path d="M21 36L23.5 36.5L26 36V38L23.5 37.5L21 38V36Z" fill="black"/>
<path d="M26.1226 36.8276L26.0577 37.0044L26.1255 37.18C28.875 44.3041 31.0545 50.2269 32.5381 55.1064C34.0242 59.9941 34.7984 63.7929 34.7659 66.6819C34.7335 69.5532 33.9078 71.4549 32.2572 72.6674C30.5707 73.9063 27.9284 74.5 24.0919 74.5C20.2489 74.5 17.4634 73.999 15.5947 72.8548C13.7699 71.7375 12.7529 69.9638 12.5413 67.2117C12.3274 64.429 12.9435 60.6872 14.3817 55.7332C15.8172 50.7884 18.0576 44.6816 21.0561 37.1857L21.1303 37L21.0561 36.8143C18.3076 29.9432 16.192 24.2109 14.8032 19.4765C13.4121 14.7339 12.7633 11.0343 12.9171 8.21473C13.0697 5.41718 14.0068 3.53483 15.7584 2.32553C17.5444 1.09242 20.2586 0.5 24.0919 0.5C27.9079 0.5 30.4047 1.27419 31.9305 2.70112C33.4444 4.11697 34.1055 6.27444 34.0161 9.29772C33.9266 12.3233 33.0867 16.1311 31.6941 20.7381C30.3034 25.3393 28.3731 30.7012 26.1226 36.8276Z" fill="white" stroke="black"/>
<path d="M21 36L23.5 36.5L26 36V38L23.5 37.5L21 38V36Z" fill="black"/>
<path d="M11.2628 497.472C12.0152 491.211 17.3268 486.5 23.6328 486.5C29.9003 486.5 35.1923 491.156 35.9903 497.373L45.3333 570.154C46.4463 578.824 39.6924 586.5 30.9513 586.5H16.9106C8.2165 586.5 1.47681 578.902 2.51418 570.27L11.2628 497.472Z" fill="#FFFEFE" stroke="black"/>
</svg>
